<?xml version="1.0" encoding="UTF-8" standalone="no"?>
<!DOCTYPE svg PUBLIC "-//W3C//DTD SVG 1.1//EN" "http://www.w3.org/Graphics/SVG/1.1/DTD/svg11.dtd">
<svg version="1.1" xmlns="http://www.w3.org/2000/svg" xmlns:xlink="http://www.w3.org/1999/xlink" preserveAspectRatio="xMidYMid meet" viewBox="0 0 640 640" width="640" height="640"><defs><path d="M512 520.65C512 520.65 512 520.65 512 520.65C512 559.05 512 580.38 512 584.65C512 584.65 512 584.65 512 584.65C488 584.65 474.67 584.65 472 584.65C472 584.65 472 584.65 472 584.65C472 546.25 472 524.91 472 520.65C472 520.65 472 520.65 472 520.65C496 520.65 509.33 520.65 512 520.65Z" id="a2pFiy5yl7"></path><path d="M512 456.65C512 456.65 512 456.65 512 456.65C512 495.05 512 516.38 512 520.65C512 520.65 512 520.65 512 520.65C488 520.65 474.67 520.65 472 520.65C472 520.65 472 520.65 472 520.65C472 482.25 472 460.91 472 456.65C472 456.65 472 456.65 472 456.65C496 456.65 509.33 456.65 512 456.65Z" id="a4KjUczyTu"></path><path d="M512 392.65C512 392.65 512 392.65 512 392.65C512 431.05 512 452.38 512 456.65C512 456.65 512 456.65 512 456.65C488 456.65 474.67 456.65 472 456.65C472 456.65 472 456.65 472 456.65C472 418.25 472 396.91 472 392.65C472 392.65 472 392.65 472 392.65C496 392.65 509.33 392.65 512 392.65Z" id="aTCF90TE0"></path><path d="M512 328.65C512 328.65 512 328.65 512 328.65C512 367.05 512 388.38 512 392.65C512 392.65 512 392.65 512 392.65C488 392.65 474.67 392.65 472 392.65C472 392.65 472 392.65 472 392.65C472 354.25 472 332.91 472 328.65C472 328.65 472 328.65 472 328.65C496 328.65 509.33 328.65 512 328.65Z" id="dPGdxBXBp"></path><path d="M512 264.65C512 264.65 512 264.65 512 264.65C512 303.05 512 324.38 512 328.65C512 328.65 512 328.65 512 328.65C488 328.65 474.67 328.65 472 328.65C472 328.65 472 328.65 472 328.65C472 290.25 472 268.91 472 264.65C472 264.65 472 264.65 472 264.65C496 264.65 509.33 264.65 512 264.65Z" id="eb3ML8PbP"></path><path d="M512 200.65C512 200.65 512 200.65 512 200.65C512 239.05 512 260.38 512 264.65C512 264.65 512 264.65 512 264.65C488 264.65 474.67 264.65 472 264.65C472 264.65 472 264.65 472 264.65C472 226.25 472 204.91 472 200.65C472 200.65 472 200.65 472 200.65C496 200.65 509.33 200.65 512 200.65Z" id="bqHIl23yv"></path><path d="M480 120.65C480 120.65 480 120.65 480 120.65C480 399.05 480 553.71 480 584.65C480 584.65 480 584.65 480 584.65C288 584.65 181.33 584.65 160 584.65C160 584.65 160 584.65 160 584.65C160 306.25 160 151.58 160 120.65C160 120.65 160 120.65 160 120.65C352 120.65 458.67 120.65 480 120.65Z" id="ai0jZeoRW"></path><path d="M456 120.65L480 120.65L480 584.65L160 584.65C160 569.65 160 561.32 160 559.66C326.93 547.13 455.98 408.04 456 240.65C456 224.65 456 184.65 456 120.65Z" id="a5lVs4V4Gc"></path><path d="M336 184.65C287.4 184.65 248 224.05 248 272.65C248 321.25 287.4 360.65 336 360.65C384.6 360.65 424 321.25 424 272.65C424 224.05 384.6 184.65 336 184.65Z" id="jPjfhr9x1"></path><path d="M336 232.65C352 232.65 360 240.65 360 256.65C360 256.65 360 256.65 360 256.65C360 272.65 352 280.65 336 280.65C336 280.65 336 280.65 336 280.65C320 280.65 312 272.65 312 256.65C312 256.65 312 256.65 312 256.65C312 240.65 320 232.65 336 232.65C336 232.65 336 232.65 336 232.65Z" id="b1Abhp77gZ"></path><path d="M320.52 280.65C306.98 280.65 296 291.63 296 305.17C296 305.17 296 305.17 296 305.17C296 309.75 296 346.39 296 350.97C321.11 363.87 350.89 363.87 376 350.97C376 346.39 376 309.75 376 305.17C376 291.63 365.02 280.65 351.48 280.65C345.29 280.65 323.62 280.65 320.52 280.65Z" id="l3tvEWKK8f"></path><path d="M208 192.65C208 192.65 208 192.65 208 192.65C208 211.85 208 222.51 208 224.65C208 224.65 208 224.65 208 224.65C160 224.65 133.33 224.65 128 224.65C128 224.65 128 224.65 128 224.65C128 205.45 128 194.78 128 192.65C128 192.65 128 192.65 128 192.65C176 192.65 202.67 192.65 208 192.65Z" id="a2uBasDa5S"></path><path d="M208 264.65C208 264.65 208 264.65 208 264.65C208 283.85 208 294.51 208 296.65C208 296.65 208 296.65 208 296.65C160 296.65 133.33 296.65 128 296.65C128 296.65 128 296.65 128 296.65C128 277.45 128 266.78 128 264.65C128 264.65 128 264.65 128 264.65C176 264.65 202.67 264.65 208 264.65Z" id="cPcI064Xf"></path><path d="M208 336.65C208 336.65 208 336.65 208 336.65C208 355.85 208 366.51 208 368.65C208 368.65 208 368.65 208 368.65C160 368.65 133.33 368.65 128 368.65C128 368.65 128 368.65 128 368.65C128 349.45 128 338.78 128 336.65C128 336.65 128 336.65 128 336.65C176 336.65 202.67 336.65 208 336.65Z" id="aUCPszZW7"></path><path d="M208 408.65C208 408.65 208 408.65 208 408.65C208 427.85 208 438.51 208 440.65C208 440.65 208 440.65 208 440.65C160 440.65 133.33 440.65 128 440.65C128 440.65 128 440.65 128 440.65C128 421.45 128 410.78 128 408.65C128 408.65 128 408.65 128 408.65C176 408.65 202.67 408.65 208 408.65Z" id="a9aU5fcvg"></path><path d="M208 480.65C208 480.65 208 480.65 208 480.65C208 499.85 208 510.51 208 512.65C208 512.65 208 512.65 208 512.65C160 512.65 133.33 512.65 128 512.65C128 512.65 128 512.65 128 512.65C128 493.45 128 482.78 128 480.65C128 480.65 128 480.65 128 480.65C176 480.65 202.67 480.65 208 480.65Z" id="c6nt69jEJ"></path><path d="M408 392.65C408 392.65 408 392.65 408 392.65C408 402.25 408 407.58 408 408.65C408 408.65 408 408.65 408 408.65C321.6 408.65 273.6 408.65 264 408.65C264 408.65 264 408.65 264 408.65C264 399.05 264 393.71 264 392.65C264 392.65 264 392.65 264 392.65C350.4 392.65 398.4 392.65 408 392.65Z" id="d1dLThGGlx"></path><path d="M408 424.65C408 424.65 408 424.65 408 424.65C408 434.25 408 439.58 408 440.65C408 440.65 408 440.65 408 440.65C321.6 440.65 273.6 440.65 264 440.65C264 440.65 264 440.65 264 440.65C264 431.05 264 425.71 264 424.65C264 424.65 264 424.65 264 424.65C350.4 424.65 398.4 424.65 408 424.65Z" id="aT0nPSU7"></path><path d="M408 456.65C408 456.65 408 456.65 408 456.65C408 466.25 408 471.58 408 472.65C408 472.65 408 472.65 408 472.65C321.6 472.65 273.6 472.65 264 472.65C264 472.65 264 472.65 264 472.65C264 463.05 264 457.71 264 456.65C264 456.65 264 456.65 264 456.65C350.4 456.65 398.4 456.65 408 456.65Z" id="a3PNKmodF"></path><path d="M250.34 542.3C249.28 541.24 243.94 535.9 234.34 526.3L245.66 514.99L256 525.34L282.34 498.99L293.66 510.3C274.46 529.5 263.79 540.17 261.66 542.3C260.16 543.8 258.12 544.65 256 544.65C253.88 544.65 251.84 543.8 250.34 542.3Z" id="c707yisfZs"></path><path d="M322.34 542.3C321.28 541.24 315.94 535.9 306.34 526.3L317.66 514.99L328 525.34L354.34 498.99L365.66 510.3C346.46 529.5 335.79 540.17 333.66 542.3C332.16 543.8 330.12 544.65 328 544.65C325.88 544.65 323.84 543.8 322.34 542.3Z" id="clYVIPy5D"></path><path d="M394.34 542.3C393.28 541.24 387.94 535.9 378.34 526.3L389.66 514.99L400 525.34L426.34 498.99L437.66 510.3C418.46 529.5 407.79 540.17 405.66 542.3C404.16 543.8 402.12 544.65 400 544.65C397.88 544.65 395.84 543.8 394.34 542.3Z" id="d3OXuRovAh"></path><path d="M488 192.65C488 149.45 488 125.45 488 120.65C488 116.23 484.42 112.65 480 112.65C448 112.65 192 112.65 160 112.65C155.58 112.65 152 116.23 152 120.65C152 124.91 152 146.25 152 184.65C137.6 184.65 129.6 184.65 128 184.65C123.58 184.65 120 188.23 120 192.65C120 195.85 120 221.45 120 224.65C120 229.07 123.58 232.65 128 232.65C129.6 232.65 137.6 232.65 152 232.65L152 256.65C137.6 256.65 129.6 256.65 128 256.65C123.58 256.65 120 260.23 120 264.65C120 267.85 120 293.45 120 296.65C120 301.07 123.58 304.65 128 304.65C129.6 304.65 137.6 304.65 152 304.65L152 328.65C137.6 328.65 129.6 328.65 128 328.65C123.58 328.65 120 332.23 120 336.65C120 339.85 120 365.45 120 368.65C120 373.07 123.58 376.65 128 376.65C129.6 376.65 137.6 376.65 152 376.65L152 400.65C137.6 400.65 129.6 400.65 128 400.65C123.58 400.65 120 404.23 120 408.65C120 411.85 120 437.45 120 440.65C120 445.07 123.58 448.65 128 448.65C129.6 448.65 137.6 448.65 152 448.65L152 472.65C137.6 472.65 129.6 472.65 128 472.65C123.58 472.65 120 476.23 120 480.65C120 483.85 120 509.45 120 512.65C120 517.07 123.58 520.65 128 520.65C129.6 520.65 137.6 520.65 152 520.65C152 559.05 152 580.38 152 584.65C152 589.07 155.58 592.65 160 592.65C195.2 592.65 476.8 592.65 512 592.65C516.42 592.65 520 589.07 520 584.65C520 546.25 520 239.05 520 200.65C520 196.23 516.42 192.65 512 192.65C508.8 192.65 500.8 192.65 488 192.65ZM136 216.65L136 200.65L200 200.65L200 216.65L136 216.65ZM136 288.65L136 272.65L200 272.65L200 288.65L136 288.65ZM136 360.65L136 344.65L200 344.65L200 360.65L136 360.65ZM136 432.65L136 416.65L200 416.65L200 432.65L136 432.65ZM136 488.65L200 488.65L200 504.65L136 504.65L136 488.65ZM472 576.65L168 576.65L168 520.65C192 520.65 205.33 520.65 208 520.65C212.42 520.65 216 517.07 216 512.65C216 509.45 216 483.85 216 480.65C216 476.23 212.42 472.65 208 472.65C205.33 472.65 192 472.65 168 472.65L168 448.65C192 448.65 205.33 448.65 208 448.65C212.42 448.65 216 445.07 216 440.65C216 437.45 216 411.85 216 408.65C216 404.23 212.42 400.65 208 400.65C205.33 400.65 192 400.65 168 400.65L168 376.65C192 376.65 205.33 376.65 208 376.65C212.42 376.65 216 373.07 216 368.65C216 365.45 216 339.85 216 336.65C216 332.23 212.42 328.65 208 328.65C205.33 328.65 192 328.65 168 328.65L168 304.65C192 304.65 205.33 304.65 208 304.65C212.42 304.65 216 301.07 216 296.65C216 293.45 216 267.85 216 264.65C216 260.23 212.42 256.65 208 256.65C205.33 256.65 192 256.65 168 256.65L168 232.65C192 232.65 205.33 232.65 208 232.65C212.42 232.65 216 229.07 216 224.65C216 221.45 216 195.85 216 192.65C216 188.23 212.42 184.65 208 184.65C205.33 184.65 192 184.65 168 184.65L168 128.65L472 128.65L472 576.65ZM504 576.65L488 576.65L488 528.65L504 528.65L504 576.65ZM504 512.65L488 512.65L488 464.65L504 464.65L504 512.65ZM504 448.65L488 448.65L488 400.65L504 400.65L504 448.65ZM504 384.65L488 384.65L488 336.65L504 336.65L504 384.65ZM504 320.65L488 320.65L488 272.65L504 272.65L504 320.65ZM504 256.65L488 256.65L488 208.65L504 208.65L504 256.65Z" id="bmD3tzS6z"></path></defs><g><g><g><use xlink:href="#a2pFiy5yl7" opacity="1" fill="#85b4e0" fill-opacity="1"></use><g><use xlink:href="#a2pFiy5yl7" opacity="1" fill-opacity="0" stroke="#000000" stroke-width="1" stroke-opacity="0"></use></g></g><g><use xlink:href="#a4KjUczyTu" opacity="1" fill="#0468ad" fill-opacity="1"></use><g><use xlink:href="#a4KjUczyTu" opacity="1" fill-opacity="0" stroke="#000000" stroke-width="1" stroke-opacity="0"></use></g></g><g><use xlink:href="#aTCF90TE0" opacity="1" fill="#85b4e0" fill-opacity="1"></use><g><use xlink:href="#aTCF90TE0" opacity="1" fill-opacity="0" stroke="#000000" stroke-width="1" stroke-opacity="0"></use></g></g><g><use xlink:href="#dPGdxBXBp" opacity="1" fill="#0468ad" fill-opacity="1"></use><g><use xlink:href="#dPGdxBXBp" opacity="1" fill-opacity="0" stroke="#000000" stroke-width="1" stroke-opacity="0"></use></g></g><g><use xlink:href="#eb3ML8PbP" opacity="1" fill="#85b4e0" fill-opacity="1"></use><g><use xlink:href="#eb3ML8PbP" opacity="1" fill-opacity="0" stroke="#000000" stroke-width="1" stroke-opacity="0"></use></g></g><g><use xlink:href="#bqHIl23yv" opacity="1" fill="#0468ad" fill-opacity="1"></use><g><use xlink:href="#bqHIl23yv" opacity="1" fill-opacity="0" stroke="#000000" stroke-width="1" stroke-opacity="0"></use></g></g><g><use xlink:href="#ai0jZeoRW" opacity="1" fill="#d9dae2" fill-opacity="1"></use><g><use xlink:href="#ai0jZeoRW" opacity="1" fill-opacity="0" stroke="#000000" stroke-width="1" stroke-opacity="0"></use></g></g><g><use xlink:href="#a5lVs4V4Gc" opacity="1" fill="#cfcfd9" fill-opacity="1"></use><g><use xlink:href="#a5lVs4V4Gc" opacity="1" fill-opacity="0" stroke="#000000" stroke-width="1" stroke-opacity="0"></use></g></g><g><use xlink:href="#jPjfhr9x1" opacity="1" fill="#ffffff" fill-opacity="1"></use><g><use xlink:href="#jPjfhr9x1" opacity="1" fill-opacity="0" stroke="#000000" stroke-width="1" stroke-opacity="0"></use></g></g><g><use xlink:href="#b1Abhp77gZ" opacity="1" fill="#027de5" fill-opacity="1"></use><g><use xlink:href="#b1Abhp77gZ" opacity="1" fill-opacity="0" stroke="#000000" stroke-width="1" stroke-opacity="0"></use></g></g><g><use xlink:href="#l3tvEWKK8f" opacity="1" fill="#027de5" fill-opacity="1"></use><g><use xlink:href="#l3tvEWKK8f" opacity="1" fill-opacity="0" stroke="#000000" stroke-width="1" stroke-opacity="0"></use></g></g><g><use xlink:href="#a2uBasDa5S" opacity="1" fill="#cceaff" fill-opacity="1"></use><g><use xlink:href="#a2uBasDa5S" opacity="1" fill-opacity="0" stroke="#000000" stroke-width="1" stroke-opacity="0"></use></g></g><g><use xlink:href="#cPcI064Xf" opacity="1" fill="#cceaff" fill-opacity="1"></use><g><use xlink:href="#cPcI064Xf" opacity="1" fill-opacity="0" stroke="#000000" stroke-width="1" stroke-opacity="0"></use></g></g><g><use xlink:href="#aUCPszZW7" opacity="1" fill="#cceaff" fill-opacity="1"></use><g><use xlink:href="#aUCPszZW7" opacity="1" fill-opacity="0" stroke="#000000" stroke-width="1" stroke-opacity="0"></use></g></g><g><use xlink:href="#a9aU5fcvg" opacity="1" fill="#cceaff" fill-opacity="1"></use><g><use xlink:href="#a9aU5fcvg" opacity="1" fill-opacity="0" stroke="#000000" stroke-width="1" stroke-opacity="0"></use></g></g><g><use xlink:href="#c6nt69jEJ" opacity="1" fill="#cceaff" fill-opacity="1"></use><g><use xlink:href="#c6nt69jEJ" opacity="1" fill-opacity="0" stroke="#000000" stroke-width="1" stroke-opacity="0"></use></g></g><g><use xlink:href="#d1dLThGGlx" opacity="1" fill="#444444" fill-opacity="1"></use><g><use xlink:href="#d1dLThGGlx" opacity="1" fill-opacity="0" stroke="#000000" stroke-width="1" stroke-opacity="0"></use></g></g><g><use xlink:href="#aT0nPSU7" opacity="1" fill="#444444" fill-opacity="1"></use><g><use xlink:href="#aT0nPSU7" opacity="1" fill-opacity="0" stroke="#000000" stroke-width="1" stroke-opacity="0"></use></g></g><g><use xlink:href="#a3PNKmodF" opacity="1" fill="#444444" fill-opacity="1"></use><g><use xlink:href="#a3PNKmodF" opacity="1" fill-opacity="0" stroke="#000000" stroke-width="1" stroke-opacity="0"></use></g></g><g><use xlink:href="#c707yisfZs" opacity="1" fill="#444444" fill-opacity="1"></use><g><use xlink:href="#c707yisfZs" opacity="1" fill-opacity="0" stroke="#000000" stroke-width="1" stroke-opacity="0"></use></g></g><g><use xlink:href="#clYVIPy5D" opacity="1" fill="#444444" fill-opacity="1"></use><g><use xlink:href="#clYVIPy5D" opacity="1" fill-opacity="0" stroke="#000000" stroke-width="1" stroke-opacity="0"></use></g></g><g><use xlink:href="#d3OXuRovAh" opacity="1" fill="#444444" fill-opacity="1"></use><g><use xlink:href="#d3OXuRovAh" opacity="1" fill-opacity="0" stroke="#000000" stroke-width="1" stroke-opacity="0"></use></g></g><g><use xlink:href="#bmD3tzS6z" opacity="1" fill="#000000" fill-opacity="1"></use><g><use xlink:href="#bmD3tzS6z" opacity="1" fill-opacity="0" stroke="#000000" stroke-width="1" stroke-opacity="0"></use></g></g></g></g></svg>