<?xml version="1.0" ?><svg data-name="Layer 2" id="Layer_2" viewBox="0 0 64 64" xmlns="http://www.w3.org/2000/svg"><defs><style>.cls-1{fill:#5c3b51;}.cls-2{fill:#4a2e42;}.cls-3{fill:#ffe94f;}.cls-4{fill:#deb142;}.cls-5{fill:#f74b50;}.cls-6{fill:#d13f44;}.cls-7{fill:#2c2a3d;}</style></defs><title/><rect class="cls-1" height="10" width="6" x="14.5" y="3"/><rect class="cls-1" height="10" width="6" x="43.5" y="3"/><rect class="cls-2" height="3" width="6" x="14.5" y="3"/><rect class="cls-2" height="3" width="6" x="43.5" y="3"/><path class="cls-3" d="M21.83,9H42.17A10.83,10.83,0,0,1,53,19.83V61a0,0,0,0,1,0,0H11a0,0,0,0,1,0,0V19.83A10.83,10.83,0,0,1,21.83,9Z"/><path class="cls-4" d="M42.17,9H21.83A10.83,10.83,0,0,0,11,19.83v3A10.83,10.83,0,0,1,21.83,12H42.17A10.83,10.83,0,0,1,53,22.83v-3A10.83,10.83,0,0,0,42.17,9Z"/><path class="cls-3" d="M3,28h8a0,0,0,0,1,0,0V53a5,5,0,0,1-5,5H3a0,0,0,0,1,0,0V28A0,0,0,0,1,3,28Z" transform="translate(14 86) rotate(-180)"/><rect class="cls-5" height="18" rx="1" ry="1" width="30" x="17" y="38"/><rect class="cls-5" height="14" rx="1" ry="1" width="30" x="17" y="17"/><path class="cls-6" d="M18,17H46a1,1,0,0,1,1,1v2a0,0,0,0,1,0,0H17a0,0,0,0,1,0,0V18A1,1,0,0,1,18,17Z"/><path class="cls-6" d="M18,38H46a1,1,0,0,1,1,1v2a0,0,0,0,1,0,0H17a0,0,0,0,1,0,0V39a1,1,0,0,1,1-1Z"/><path class="cls-5" d="M27,3H37a2,2,0,0,1,2,2V9a0,0,0,0,1,0,0H25a0,0,0,0,1,0,0V5A2,2,0,0,1,27,3Z"/><circle class="cls-3" cx="32" cy="46" r="2"/><path class="cls-5" d="M8,28h3a0,0,0,0,1,0,0V38a0,0,0,0,1,0,0H3a0,0,0,0,1,0,0V33A5,5,0,0,1,8,28Z"/><path class="cls-6" d="M8,28a5,5,0,0,0-5,5v3a5,5,0,0,1,5-5h3V28Z"/><path class="cls-3" d="M53,28h3a5,5,0,0,1,5,5V58a0,0,0,0,1,0,0H53a0,0,0,0,1,0,0V28A0,0,0,0,1,53,28Z"/><path class="cls-5" d="M53,28h8a0,0,0,0,1,0,0V38a0,0,0,0,1,0,0H58a5,5,0,0,1-5-5V28A0,0,0,0,1,53,28Z" transform="translate(114 66) rotate(-180)"/><path class="cls-6" d="M56,28H53v3h3a5,5,0,0,1,5,5V33A5,5,0,0,0,56,28Z"/><path class="cls-7" d="M46,37H18a2,2,0,0,0-2,2V55a2,2,0,0,0,2,2H46a2,2,0,0,0,2-2V39A2,2,0,0,0,46,37ZM18,55V39H46V55Z"/><path class="cls-7" d="M46,16H18a2,2,0,0,0-2,2V30a2,2,0,0,0,2,2H46a2,2,0,0,0,2-2V18A2,2,0,0,0,46,16ZM18,30V18H46V30Z"/><path class="cls-7" d="M32,43a3,3,0,1,0,3,3A3,3,0,0,0,32,43Zm0,4a1,1,0,1,1,1-1A1,1,0,0,1,32,47Z"/><path class="cls-7" d="M56,27H54V19.83a11.8,11.8,0,0,0-3.5-8.39V3a1,1,0,0,0-1-1h-6a1,1,0,0,0-1,1V8l-.33,0H40V5a3,3,0,0,0-3-3H27a3,3,0,0,0-3,3V8H21.83L21.5,8V3a1,1,0,0,0-1-1h-6a1,1,0,0,0-1,1v8.44A11.8,11.8,0,0,0,10,19.83V27H8a6,6,0,0,0-6,6V58a1,1,0,0,0,1,1h7v2a1,1,0,0,0,1,1H53a1,1,0,0,0,1-1V59h7a1,1,0,0,0,1-1V33A6,6,0,0,0,56,27Zm0,2a4,4,0,0,1,4,4v4H54V29ZM44.5,4h4V9.85a11.91,11.91,0,0,0-4-1.62ZM26,5a1,1,0,0,1,1-1H37a1,1,0,0,1,1,1V8H26ZM15.5,4h4V8.23a11.91,11.91,0,0,0-4,1.62ZM4,33a4,4,0,0,1,4-4h2v8H4ZM4,57V39h6V57Zm48,3H12V19.83A9.84,9.84,0,0,1,21.83,10H42.17A9.84,9.84,0,0,1,52,19.83V60Zm8-3H54V39h6Z"/></svg>