<?xml version="1.0" encoding="UTF-8" standalone="no"?>
<!DOCTYPE svg PUBLIC "-//W3C//DTD SVG 1.1//EN" "http://www.w3.org/Graphics/SVG/1.1/DTD/svg11.dtd">
<svg version="1.1" xmlns="http://www.w3.org/2000/svg" xmlns:xlink="http://www.w3.org/1999/xlink" preserveAspectRatio="xMidYMid meet" viewBox="0 0 640 640" width="640" height="640"><defs><path d="M220.33 68.67C220.33 68.67 220.33 68.67 220.33 68.67C220.33 120.67 220.33 149.56 220.33 155.33C220.33 155.33 220.33 155.33 220.33 155.33C189.13 155.33 171.8 155.33 168.33 155.33C168.33 155.33 168.33 155.33 168.33 155.33C168.33 103.33 168.33 74.44 168.33 68.67C168.33 68.67 168.33 68.67 168.33 68.67C199.53 68.67 216.87 68.67 220.33 68.67Z" id="a22hhEBUmv"></path><path d="M471.67 68.67C471.67 68.67 471.67 68.67 471.67 68.67C471.67 120.67 471.67 149.56 471.67 155.33C471.67 155.33 471.67 155.33 471.67 155.33C440.47 155.33 423.13 155.33 419.67 155.33C419.67 155.33 419.67 155.33 419.67 155.33C419.67 103.33 419.67 74.44 419.67 68.67C419.67 68.67 419.67 68.67 419.67 68.67C450.87 68.67 468.2 68.67 471.67 68.67Z" id="d54wcn1qco"></path><path d="M220.33 68.67C220.33 68.67 220.33 68.67 220.33 68.67C220.33 84.27 220.33 92.93 220.33 94.67C220.33 94.67 220.33 94.67 220.33 94.67C189.13 94.67 171.8 94.67 168.33 94.67C168.33 94.67 168.33 94.67 168.33 94.67C168.33 79.07 168.33 70.4 168.33 68.67C168.33 68.67 168.33 68.67 168.33 68.67C199.53 68.67 216.87 68.67 220.33 68.67Z" id="ciePLssDk"></path><path d="M471.67 68.67C471.67 68.67 471.67 68.67 471.67 68.67C471.67 84.27 471.67 92.93 471.67 94.67C471.67 94.67 471.67 94.67 471.67 94.67C440.47 94.67 423.13 94.67 419.67 94.67C419.67 94.67 419.67 94.67 419.67 94.67C419.67 79.07 419.67 70.4 419.67 68.67C419.67 68.67 419.67 68.67 419.67 68.67C450.87 68.67 468.2 68.67 471.67 68.67Z" id="a32EIx4zn"></path><path d="M408.14 120.67C459.98 120.67 502 162.69 502 214.53C502 238.31 502 357.25 502 571.33L138 571.33C138 357.25 138 238.31 138 214.53C138 162.69 180.02 120.67 231.86 120.67C267.12 120.67 390.51 120.67 408.14 120.67Z" id="nT3vrJ8Lk"></path><path d="M231.86 120.67C180.02 120.67 138 162.69 138 214.53C138 217.13 138 237.93 138 240.53C138 188.69 180.02 146.67 231.86 146.67C249.49 146.67 390.51 146.67 408.14 146.67C459.98 146.67 502 188.69 502 240.53C502 237.93 502 217.13 502 214.53C502 162.69 459.98 120.67 408.14 120.67C372.88 120.67 249.49 120.67 231.86 120.67Z" id="a4wTUDok6c"></path><path d="M68.67 545.33C68.67 415.33 68.67 343.11 68.67 328.67C68.67 304.73 88.07 285.33 112 285.33C113.73 285.33 122.4 285.33 138 285.33L138 545.33L68.67 545.33Z" id="a8ZPvNhXO"></path><path d="M441.33 372C447.11 372 450 374.89 450 380.67C450 463.87 450 510.09 450 519.33C450 525.11 447.11 528 441.33 528C295.73 528 214.84 528 198.67 528C192.89 528 190 525.11 190 519.33C190 436.13 190 389.91 190 380.67C190 374.89 192.89 372 198.67 372C344.27 372 425.16 372 441.33 372Z" id="bj3hs3eva"></path><path d="M441.33 190C447.11 190 450 192.89 450 198.67C450 261.07 450 295.73 450 302.67C450 308.44 447.11 311.33 441.33 311.33C295.73 311.33 214.84 311.33 198.67 311.33C192.89 311.33 190 308.44 190 302.67C190 240.27 190 205.6 190 198.67C190 192.89 192.89 190 198.67 190C344.27 190 425.16 190 441.33 190Z" id="h4Pn7UqUH5"></path><path d="M441.33 190C446.12 190 450 193.88 450 198.67C450 199.82 450 205.6 450 216L190 216C190 205.6 190 199.82 190 198.67C190 193.88 193.88 190 198.67 190C247.2 190 417.07 190 441.33 190Z" id="c9IpO0BAv6"></path><path d="M441.33 372C446.12 372 450 375.88 450 380.67C450 381.82 450 387.6 450 398L190 398C190 387.6 190 381.82 190 380.67C190 375.88 193.88 372 198.67 372C247.2 372 417.07 372 441.33 372Z" id="a3x6Sy7GxT"></path><path d="M363.33 68.67C372.91 68.67 380.67 76.43 380.67 86C380.67 88.31 380.67 99.87 380.67 120.67L259.33 120.67C259.33 99.87 259.33 88.31 259.33 86C259.33 76.43 267.09 68.67 276.67 68.67C294 68.67 354.67 68.67 363.33 68.67Z" id="a2oKDLDAwD"></path><path d="M320 424C310.43 424 302.67 431.76 302.67 441.33C302.67 450.91 310.43 458.67 320 458.67C329.57 458.67 337.33 450.91 337.33 441.33C337.33 431.76 329.57 424 320 424Z" id="c3VNFB5BKb"></path><path d="M138 285.33L138 372L68.67 372C68.67 346 68.67 331.56 68.67 328.67C68.67 304.73 88.07 285.33 112 285.33C115.47 285.33 124.13 285.33 138 285.33Z" id="a1Ci9e5XZ"></path><path d="M112 285.33C88.07 285.33 68.67 304.73 68.67 328.67C68.67 331.27 68.67 352.07 68.67 354.67C68.67 330.73 88.07 311.33 112 311.33C113.73 311.33 122.4 311.33 138 311.33L138 285.33C124.13 285.33 115.47 285.33 112 285.33Z" id="b2UrS1NAPl"></path><path d="M528 285.33C551.93 285.33 571.33 304.73 571.33 328.67C571.33 343.11 571.33 415.33 571.33 545.33L502 545.33L502 285.33C517.6 285.33 526.27 285.33 528 285.33Z" id="adlzbliDX"></path><path d="M502 372L502 285.33C517.6 285.33 526.27 285.33 528 285.33C551.93 285.33 571.33 304.73 571.33 328.67C571.33 331.56 571.33 346 571.33 372L502 372Z" id="h3vyFKBLIl"></path><path d="M502 285.33L502 311.33C517.6 311.33 526.27 311.33 528 311.33C551.93 311.33 571.33 330.73 571.33 354.67C571.33 352.07 571.33 331.27 571.33 328.67C571.33 304.73 551.93 285.33 528 285.33C524.53 285.33 515.87 285.33 502 285.33Z" id="bAlE7kOGh"></path><path d="M198.67 363.33C189.09 363.33 181.33 371.09 181.33 380.67C181.33 394.53 181.33 505.47 181.33 519.33C181.33 528.91 189.09 536.67 198.67 536.67C222.93 536.67 417.07 536.67 441.33 536.67C450.91 536.67 458.67 528.91 458.67 519.33C458.67 505.47 458.67 394.53 458.67 380.67C458.67 371.09 450.91 363.33 441.33 363.33C392.8 363.33 222.93 363.33 198.67 363.33ZM198.67 519.33L198.67 380.67L441.33 380.67L441.33 519.33L198.67 519.33Z" id="a1unJnaHpx"></path><path d="M198.67 181.33C189.09 181.33 181.33 189.09 181.33 198.67C181.33 209.07 181.33 292.27 181.33 302.67C181.33 312.24 189.09 320 198.67 320C222.93 320 417.07 320 441.33 320C450.91 320 458.67 312.24 458.67 302.67C458.67 292.27 458.67 209.07 458.67 198.67C458.67 189.09 450.91 181.33 441.33 181.33C392.8 181.33 222.93 181.33 198.67 181.33ZM198.67 302.67L198.67 198.67L441.33 198.67L441.33 302.67L198.67 302.67Z" id="bQqT9qcP"></path><path d="M294 441.33C294 455.69 305.64 467.33 320 467.33C334.36 467.33 346 455.69 346 441.33C346 426.97 334.36 415.33 320 415.33C305.64 415.33 294 426.97 294 441.33ZM311.33 441.33C311.33 436.55 315.21 432.67 320 432.67C324.79 432.67 328.67 436.55 328.67 441.33C328.67 446.12 324.79 450 320 450C315.21 450 311.33 446.12 311.33 441.33Z" id="a2BOstx3uA"></path><path d="M510.67 276.67C510.67 239.38 510.67 218.67 510.67 214.53C510.67 187.21 499.75 161.03 480.33 141.81C480.33 134.5 480.33 75.98 480.33 68.67C480.33 63.88 476.45 60 471.67 60C466.47 60 424.87 60 419.67 60C414.88 60 411 63.88 411 68.67C411 71.56 411 86 411 112L408.14 112L389.33 112C389.33 96.4 389.33 87.73 389.33 86C389.33 71.64 377.69 60 363.33 60C354.67 60 285.33 60 276.67 60C262.31 60 250.67 71.64 250.67 86C250.67 87.73 250.67 96.4 250.67 112L231.86 112L229 112C229 86 229 71.56 229 68.67C229 63.88 225.12 60 220.33 60C215.13 60 173.53 60 168.33 60C163.55 60 159.67 63.88 159.67 68.67C159.67 75.98 159.67 134.5 159.67 141.81C140.25 161.03 129.33 187.21 129.33 214.53C129.33 218.67 129.33 239.38 129.33 276.67C118.93 276.67 113.16 276.67 112 276.67C83.28 276.67 60 299.95 60 328.67C60 350.33 60 523.67 60 545.33C60 550.12 63.88 554 68.67 554C72.71 554 92.93 554 129.33 554C129.33 564.4 129.33 570.18 129.33 571.33C129.33 576.12 133.21 580 138 580C174.4 580 465.6 580 502 580C506.79 580 510.67 576.12 510.67 571.33C510.67 570.18 510.67 564.4 510.67 554C547.07 554 567.29 554 571.33 554C576.12 554 580 550.12 580 545.33C580 523.67 580 350.33 580 328.67C580 299.95 556.72 276.67 528 276.67C525.69 276.67 519.91 276.67 510.67 276.67ZM528 294C547.15 294 562.67 309.52 562.67 328.67C562.67 330.98 562.67 342.53 562.67 363.33L510.67 363.33L510.67 294C519.91 294 525.69 294 528 294ZM428.33 77.33L463 77.33C463 107.75 463 124.65 463 128.03C452.4 121.28 440.65 116.52 428.33 113.99C428.33 109.11 428.33 96.89 428.33 77.33ZM268 86C268 81.21 271.88 77.33 276.67 77.33C285.33 77.33 354.67 77.33 363.33 77.33C368.12 77.33 372 81.21 372 86C372 87.73 372 96.4 372 112L268 112C268 98.13 268 89.47 268 86ZM177 77.33L211.67 77.33C211.67 99.33 211.67 111.55 211.67 113.99C199.35 116.52 187.6 121.28 177 128.03C177 121.27 177 104.37 177 77.33ZM77.33 328.67C77.33 309.52 92.85 294 112 294C113.16 294 118.93 294 129.33 294L129.33 363.33L77.33 363.33C77.33 344.84 77.33 333.29 77.33 328.67ZM77.33 536.67L77.33 380.67L129.33 380.67L129.33 536.67L77.33 536.67ZM146.67 562.67C146.67 353.78 146.67 237.74 146.67 214.53C146.71 167.5 184.83 129.38 231.86 129.33C249.49 129.33 390.51 129.33 408.14 129.33C455.17 129.38 493.29 167.5 493.33 214.53C493.33 237.74 493.33 353.78 493.33 562.67L146.67 562.67ZM562.67 536.67L510.67 536.67L510.67 380.67L562.67 380.67L562.67 536.67Z" id="iu8NRz78H"></path></defs><g><g><g><use xlink:href="#a22hhEBUmv" opacity="1" fill="#5c3b51" fill-opacity="1"></use><g><use xlink:href="#a22hhEBUmv" opacity="1" fill-opacity="0" stroke="#000000" stroke-width="6" stroke-opacity="0"></use></g></g><g><use xlink:href="#d54wcn1qco" opacity="1" fill="#5c3b51" fill-opacity="1"></use><g><use xlink:href="#d54wcn1qco" opacity="1" fill-opacity="0" stroke="#000000" stroke-width="6" stroke-opacity="0"></use></g></g><g><use xlink:href="#ciePLssDk" opacity="1" fill="#4a2e42" fill-opacity="1"></use><g><use xlink:href="#ciePLssDk" opacity="1" fill-opacity="0" stroke="#000000" stroke-width="6" stroke-opacity="0"></use></g></g><g><use xlink:href="#a32EIx4zn" opacity="1" fill="#4a2e42" fill-opacity="1"></use><g><use xlink:href="#a32EIx4zn" opacity="1" fill-opacity="0" stroke="#000000" stroke-width="6" stroke-opacity="0"></use></g></g><g><use xlink:href="#nT3vrJ8Lk" opacity="1" fill="#ffe94f" fill-opacity="1"></use><g><use xlink:href="#nT3vrJ8Lk" opacity="1" fill-opacity="0" stroke="#000000" stroke-width="6" stroke-opacity="0"></use></g></g><g><use xlink:href="#a4wTUDok6c" opacity="1" fill="#deb142" fill-opacity="1"></use><g><use xlink:href="#a4wTUDok6c" opacity="1" fill-opacity="0" stroke="#000000" stroke-width="6" stroke-opacity="0"></use></g></g><g><use xlink:href="#a8ZPvNhXO" opacity="1" fill="#ffe94f" fill-opacity="1"></use><g><use xlink:href="#a8ZPvNhXO" opacity="1" fill-opacity="0" stroke="#000000" stroke-width="6" stroke-opacity="0"></use></g></g><g><use xlink:href="#bj3hs3eva" opacity="1" fill="#f74b50" fill-opacity="1"></use><g><use xlink:href="#bj3hs3eva" opacity="1" fill-opacity="0" stroke="#000000" stroke-width="6" stroke-opacity="0"></use></g></g><g><use xlink:href="#h4Pn7UqUH5" opacity="1" fill="#f74b50" fill-opacity="1"></use><g><use xlink:href="#h4Pn7UqUH5" opacity="1" fill-opacity="0" stroke="#000000" stroke-width="6" stroke-opacity="0"></use></g></g><g><use xlink:href="#c9IpO0BAv6" opacity="1" fill="#d13f44" fill-opacity="1"></use><g><use xlink:href="#c9IpO0BAv6" opacity="1" fill-opacity="0" stroke="#000000" stroke-width="6" stroke-opacity="0"></use></g></g><g><use xlink:href="#a3x6Sy7GxT" opacity="1" fill="#d13f44" fill-opacity="1"></use><g><use xlink:href="#a3x6Sy7GxT" opacity="1" fill-opacity="0" stroke="#000000" stroke-width="6" stroke-opacity="0"></use></g></g><g><use xlink:href="#a2oKDLDAwD" opacity="1" fill="#f74b50" fill-opacity="1"></use><g><use xlink:href="#a2oKDLDAwD" opacity="1" fill-opacity="0" stroke="#000000" stroke-width="6" stroke-opacity="0"></use></g></g><g><use xlink:href="#c3VNFB5BKb" opacity="1" fill="#ffe94f" fill-opacity="1"></use><g><use xlink:href="#c3VNFB5BKb" opacity="1" fill-opacity="0" stroke="#000000" stroke-width="6" stroke-opacity="0"></use></g></g><g><use xlink:href="#a1Ci9e5XZ" opacity="1" fill="#f74b50" fill-opacity="1"></use><g><use xlink:href="#a1Ci9e5XZ" opacity="1" fill-opacity="0" stroke="#000000" stroke-width="6" stroke-opacity="0"></use></g></g><g><use xlink:href="#b2UrS1NAPl" opacity="1" fill="#d13f44" fill-opacity="1"></use><g><use xlink:href="#b2UrS1NAPl" opacity="1" fill-opacity="0" stroke="#000000" stroke-width="6" stroke-opacity="0"></use></g></g><g><use xlink:href="#adlzbliDX" opacity="1" fill="#ffe94f" fill-opacity="1"></use><g><use xlink:href="#adlzbliDX" opacity="1" fill-opacity="0" stroke="#000000" stroke-width="6" stroke-opacity="0"></use></g></g><g><use xlink:href="#h3vyFKBLIl" opacity="1" fill="#f74b50" fill-opacity="1"></use><g><use xlink:href="#h3vyFKBLIl" opacity="1" fill-opacity="0" stroke="#000000" stroke-width="6" stroke-opacity="0"></use></g></g><g><use xlink:href="#bAlE7kOGh" opacity="1" fill="#d13f44" fill-opacity="1"></use><g><use xlink:href="#bAlE7kOGh" opacity="1" fill-opacity="0" stroke="#000000" stroke-width="6" stroke-opacity="0"></use></g></g><g><use xlink:href="#a1unJnaHpx" opacity="1" fill="#2c2a3d" fill-opacity="1"></use><g><use xlink:href="#a1unJnaHpx" opacity="1" fill-opacity="0" stroke="#000000" stroke-width="6" stroke-opacity="0"></use></g></g><g><use xlink:href="#bQqT9qcP" opacity="1" fill="#2c2a3d" fill-opacity="1"></use><g><use xlink:href="#bQqT9qcP" opacity="1" fill-opacity="0" stroke="#000000" stroke-width="6" stroke-opacity="0"></use></g></g><g><use xlink:href="#a2BOstx3uA" opacity="1" fill="#2c2a3d" fill-opacity="1"></use><g><use xlink:href="#a2BOstx3uA" opacity="1" fill-opacity="0" stroke="#000000" stroke-width="6" stroke-opacity="0"></use></g></g><g><use xlink:href="#iu8NRz78H" opacity="1" fill="#2c2a3d" fill-opacity="1"></use><g><use xlink:href="#iu8NRz78H" opacity="1" fill-opacity="0" stroke="#000000" stroke-width="6" stroke-opacity="0"></use></g></g></g></g></svg>