<?xml version="1.0" standalone="no"?>
<!DOCTYPE svg PUBLIC "-//W3C//DTD SVG 20010904//EN"
 "http://www.w3.org/TR/2001/REC-SVG-20010904/DTD/svg10.dtd">
<svg version="1.0" xmlns="http://www.w3.org/2000/svg"
 width="700.000000pt" height="700.000000pt" viewBox="0 0 700.000000 700.000000"
 preserveAspectRatio="xMidYMid meet">
<metadata>
Created by potrace 1.11, written by Peter Selinger 2001-2013
</metadata>
<g transform="translate(0.000000,700.000000) scale(0.100000,-0.100000)"
fill="#000000" stroke="none">
<path d="M3477 5804 c-1 -1 -14 -5 -27 -7 -28 -6 -181 -58 -310 -107 -47 -18
-121 -45 -165 -60 -44 -16 -136 -49 -205 -75 -69 -25 -152 -55 -185 -66 -33
-11 -69 -24 -80 -29 -19 -9 -592 -218 -725 -265 -36 -12 -240 -87 -455 -165
-394 -144 -423 -155 -755 -275 -239 -87 -273 -108 -323 -200 -31 -57 -31 -183
0 -240 25 -47 76 -101 112 -120 14 -7 161 -56 326 -110 165 -53 352 -114 415
-135 63 -21 235 -77 383 -125 l267 -87 0 -668 c0 -498 3 -676 12 -695 7 -15
28 -35 47 -45 35 -17 325 -137 531 -220 58 -23 119 -48 135 -55 17 -7 66 -28
110 -45 44 -18 99 -40 122 -51 23 -10 44 -19 47 -19 3 0 47 -18 98 -39 51 -21
129 -54 173 -71 44 -18 161 -66 260 -107 103 -43 195 -75 215 -75 23 0 231 80
625 241 325 133 604 249 622 257 17 8 34 14 37 14 3 0 29 10 58 23 29 13 73
32 98 41 25 10 54 22 65 27 11 5 56 24 100 42 91 36 117 53 133 84 9 16 12
203 12 692 l0 670 198 64 c108 36 207 67 219 71 l21 7 0 -745 0 -745 -52 -30
c-62 -34 -107 -83 -138 -149 -23 -46 -23 -53 -26 -490 -3 -431 -2 -444 18
-472 11 -15 32 -32 47 -37 16 -6 136 -9 268 -9 260 1 277 4 307 58 18 35 19
823 0 897 -23 92 -84 169 -164 208 -21 10 -38 23 -39 28 0 6 -2 354 -2 774 -1
497 1 768 8 776 6 7 171 65 368 129 318 104 363 121 398 153 139 125 129 331
-20 430 -28 19 -218 94 -491 193 -245 88 -452 164 -460 167 -8 3 -19 7 -25 9
-5 1 -55 19 -110 39 -182 68 -260 96 -285 105 -14 4 -68 24 -120 43 -52 19
-302 110 -555 202 -253 92 -500 182 -550 200 -97 35 -272 99 -400 146 -71 26
-180 51 -188 43z"/>
</g>
</svg>
